<svg width="32" height="32" viewBox="0 0 200 200" fill="none" xmlns="http://www.w3.org/2000/svg">
  <!-- Stylized Q shape - outer circle with open top -->
  <path
    d="M100 25 C55 25, 20 60, 20 100 C20 140, 55 175, 100 175 C145 175, 180 140, 180 100 C180 60, 145 25, 100 25 Z M100 45 C70 45, 45 70, 45 100 C45 130, 70 155, 100 155 C130 155, 155 130, 155 100 C155 70, 130 45, 100 45 Z"
    fill="#000000"
  />
  <!-- Tail of Q extending from bottom right -->
  <path
    d="M125 125 L165 165 L155 175 L115 135 Z"
    fill="#000000"
  />
  <!-- Simplified SMART text for small favicon - using larger, bolder text -->
  <text
    x="100"
    y="80"
    fontFamily="'Arial', 'Helvetica', sans-serif"
    fontSize="36"
    fontWeight="900"
    fill="#000000"
    textAnchor="middle"
    dominantBaseline="middle"
    letterSpacing="1"
  >
    SMART
  </text>
</svg>

